<svg width="100%" height="20vw" viewBox="0 0 285 295" fill="none" xmlns="http://www.w3.org/2000/svg"><path d="M 0 9.673200000196694 L 0 0 L 181 0 L 285 0.8772000002563018 L 285 10.550400000452996 L 104 10.550400000452996 Z" stroke="currentColor" fill="none"></path><path d="M 104 39.42760000070929 L 0 28.958400000572198 L 0 19.489200000435105 L 181 19.489200000435105 L 285 29.958400000572198 L 285 39.42760000070929 Z" stroke="currentColor" fill="none"></path><path d="M 0 61.611200000762935 L 0 45.40720000070333 L 181 45.40720000070333 L 285 62.611200000762935 L 285 78.81520000082253 L 104 78.81520000082253 Z" stroke="currentColor" fill="none"></path><path d="M 0 109.61120000076293 L 0 83.81520000082253 L 181 83.81520000082253 L 285 110.61120000076293 L 285 136.4072000007033 L 104 136.4072000007033 Z" stroke="currentColor" fill="none"></path><path d="M 104 205.48920000043512 L 0 172.9584000005722 L 0 141.42760000070928 L 181 141.42760000070928 L 285 173.9584000005722 L 285 205.48920000043512 Z" stroke="currentColor" fill="none"></path><path d="M 0 252.8772000002563 L 0 211.550400000453 L 181 211.550400000453 L 285 253.6732000001967 L 285 295 L 104 295 Z" stroke="currentColor" fill="none"></path></svg>